# xmcd
# Track frame offsets:
# 150
# 18138
# 31525
# 41775
# 52813
# 64013
# 81425
# 91600
# 105825
# 118788
# 131475
# 143113
# 154088
# 163938
# 175813
# 189338
#
# Disc length: 2687 seconds
# Revision: 2
# Processed by: cddbd v1.4PL0 Copyright (c) Steve Scherf et al.
# Submitted via: VisiTrax 2.9.7.197 - For more info visit www.synapsa.com
#
DISCID=be0a7d10
DTITLE=Jørgen Ingmann - (Antageligt) - Guitar Romantic Collection - Vol. 3
DYEAR=1990
DGENRE=Instrumental
TTITLE0=Verde
TTITLE1=Stardust
TTITLE2=Blue Balloon
TTITLE3=This Is My Song
TTITLE4=La Balanga
TTITLE5=If We Only Had Time
TTITLE6=Marguerite
TTITLE7=Classical Touch
TTITLE8=I Am Just A Girl
TTITLE9=Nostalgia
TTITLE10=Love In The Open Air
TTITLE11=Frenesi
TTITLE12=High Noon
TTITLE13=Django
TTITLE14=Money, Money, Money
TTITLE15=La Mer
EXTD=More than one track is for sure recorded by the artist stated.
EXTT0=
EXTT1=
EXTT2=
EXTT3=
EXTT4=
EXTT5=
EXTT6=
EXTT7=
EXTT8=
EXTT9=
EXTT10=
EXTT11=
EXTT12=
EXTT13=
EXTT14=
EXTT15=
PLAYORDER=
